<svg viewBox="0 0 25 20" xmlns="http://www.w3.org/2000/svg"><path d="M13.235.836v3.268h-1.437V.836h1.437zm-5.323 0v3.268H6.475V.836h1.437zM3.815 4.104V.836H5.25v3.268H3.815zM10.574.836v3.268H9.137V.836h1.437zm7.58 0c.258 0 .47.209.47.462v2.344a.467.467 0 0 1-.47.462h-1.033V.836h1.034zM2.59.836v3.268H1.556a.466.466 0 0 1-.467-.462V1.298c0-.253.21-.462.467-.462H2.59zm13.307 0v3.268H14.46V.836h1.436zm-1.8 5.258c-.52.28-.998.624-1.437 1.012V4.582h1.437v1.512zm5.389-.737a7.813 7.813 0 0 0-1.503-.183v-.592h1.034c.258 0 .469.209.469.462v.313zm-2.727-.117a7.703 7.703 0 0 0-1.437.33v-.988h1.437v.658zM1.95 5.044c0-.253.21-.462.468-.462H3.45V7.85H2.418a.466.466 0 0 1-.468-.462V5.044zm9.485-.462V7.85H9.999V4.582h1.436zM7.337 7.85V4.582h1.436V7.85H7.337zm-2.661 0V4.582h1.436V7.85H4.676zm-.784 3.745V8.327H5.33v3.268H3.892zM1.167 8.789c0-.253.21-.462.467-.462h1.033v3.268H1.634a.466.466 0 0 1-.467-.462V8.789zm5.386 2.806V8.327H7.99v3.268H6.553zm4.099-1.686c-.22.534-.376 1.1-.469 1.686h-.968V8.327h1.437v1.582zm-8.265 2.626c0-.253.21-.462.468-.462h1.033v3.268H2.855a.466.466 0 0 1-.468-.463v-2.343zm2.726 2.806v-3.268H6.55v3.268H5.113zm2.661 0v-3.268h1.437v3.268H7.774zM6.32 19.086v-3.268h1.436v3.268H6.319zM.932 16.28c0-.254.21-.462.467-.462h1.033v3.268H1.4a.466.466 0 0 1-.467-.463V16.28zm2.726 2.806v-3.268h1.436v3.268H3.658zm5.322 0v-3.268h1.437v3.268H8.98zm2.661-1.724c.413.54.895 1.024 1.437 1.438v.286H11.64v-1.724zM17.785 6.22c3.666 0 6.636 2.938 6.636 6.56 0 3.624-2.97 6.56-6.636 6.56-3.664 0-6.636-2.936-6.636-6.56 0-3.622 2.972-6.56 6.636-6.56zm0 1.345c2.91 0 5.277 2.34 5.277 5.216 0 2.876-2.367 5.216-5.277 5.216s-5.277-2.34-5.277-5.216c0-2.876 2.367-5.216 5.277-5.216zm1.17 8.155c.336-.313.496-.752.482-1.316-.007-.283-.107-.595-.302-.937-.13-.229-.318-.47-.565-.72a5.819 5.819 0 0 0-.466-.403 3.715 3.715 0 0 1-.438-.413c-.261-.314-.391-.62-.391-.92 0-.19.038-.351.116-.481a.46.46 0 0 1 .418-.24c.176 0 .306.053.391.157.127.157.204.368.232.632l.963-.172c-.035-.463-.208-.837-.518-1.124a1.405 1.405 0 0 0-.666-.334v-.424h-.847v.424c-.39.094-.685.314-.883.658a1.81 1.81 0 0 0-.242.925c0 .352.086.678.26.977.136.241.358.505.664.795.396.37.694.647.894.831.248.272.371.541.371.81 0 .188-.035.333-.1.433-.132.207-.305.313-.525.32a.516.516 0 0 1-.412-.183c-.159-.164-.258-.439-.3-.826l-.958.068c.024.418.128.783.312 1.097.215.366.522.6.92.7v.481h.846v-.46c.296-.052.545-.17.745-.355zm-1.17 2.701c3.147 0 5.706-2.53 5.706-5.64s-2.56-5.64-5.706-5.64c-3.147 0-5.706 2.53-5.706 5.64s2.56 5.64 5.706 5.64z" fill="#F58220" fill-rule="evenodd"/></svg>