<svg viewBox="0 0 85 77" xmlns="http://www.w3.org/2000/svg" xmlns:xlink="http://www.w3.org/1999/xlink"><defs><path id="a" d="M0 76.556h84.556V0H0z"/><path id="c" d="M0 76.556h84.556V0H0z"/></defs><g fill="none" fill-rule="evenodd"><path d="M.944 48.944L42.28 75.612l41.332-26.668L42.28 22.277z" fill="#FFF" fill-rule="nonzero"/><g transform="matrix(1 0 0 -1 0 76.556)"><mask id="b" fill="#fff"><use xlink:href="#a"/></mask><g mask="url(#b)" stroke="#575757" stroke-linejoin="round" stroke-width="1.889"><path d="M42.278.945L.945 27.612l41.333 26.666 41.334-26.666z"/></g></g><path d="M.944 38.278L42.28 64.946l41.332-26.668L42.28 11.61z" fill="#CCC" fill-rule="nonzero"/><path d="M42.278 54.278l-25.333-16 25.333-16 25.334 16z" fill="#A9A9A9" fill-rule="nonzero"/><g transform="matrix(1 0 0 -1 0 76.556)"><mask id="d" fill="#fff"><use xlink:href="#c"/></mask><g mask="url(#d)" stroke-linejoin="round"><path stroke="#575757" stroke-width="1.889" d="M42.278 11.612L.945 38.279l41.333 26.666 41.334-26.666z"/><path stroke="#575757" stroke-width="1.889" d="M42.278 22.278L.945 48.945l41.333 26.666 41.334-26.666z"/></g></g></g></svg>