<svg viewBox="0 0 25 22" xmlns="http://www.w3.org/2000/svg"><path d="M6.191 8.292a3.554 3.554 0 0 1-3.553-3.557 3.555 3.555 0 0 1 3.553-3.556c.779 0 1.493.258 2.079.683A5.683 5.683 0 0 0 6.984 5.47c0 .913.217 1.774.598 2.54a3.547 3.547 0 0 1-1.39.283zm3.548 2.643c.023.03.048.068.072.105-.869.24-1.947.76-2.741 1.9-.506.728-1.078 2.467-1.516 3.981H1.633c-.522 0-.843-.414-.713-.918 0 0 .017-.129.074-.341.319-1.368 1.08-4.087 1.571-4.793.917-1.32 2.522-1.265 2.522-1.265h1.721s2.17-.066 2.931 1.33zm14.76 5.07c.134.504-.183.916-.704.916h-3.977c-.465-1.492-1.054-3.128-1.594-3.871-.651-1.13-1.778-1.685-2.783-1.958.045-.086.088-.163.13-.223.917-1.32 2.521-1.265 2.521-1.265h1.722s2.17-.066 2.93 1.33c.564.713 1.43 3.642 1.717 4.879l.037.193zm-6.701-8.002a5.674 5.674 0 0 0-.683-6.137 3.52 3.52 0 0 1 2.082-.687 3.554 3.554 0 0 1 3.553 3.556 3.553 3.553 0 0 1-4.952 3.268zm-5.108 2.142A4.67 4.67 0 0 1 8.02 5.47 4.672 4.672 0 0 1 12.69.795c2.58 0 4.67 2.093 4.67 4.674a4.67 4.67 0 0 1-4.67 4.676zm6.968 10.14c.177.662-.239 1.205-.924 1.205H6.697c-.686 0-1.108-.544-.938-1.208 0 0 .024-.17.097-.45.421-1.795 1.422-5.37 2.066-6.299 1.207-1.736 3.315-1.661 3.315-1.661h2.262s2.853-.088 3.854 1.748c.74.936 1.88 4.786 2.256 6.412l.049.253z" fill="#F58220" fill-rule="evenodd"/></svg>