<svg viewBox="0 0 281 226" xmlns="http://www.w3.org/2000/svg" xmlns:xlink="http://www.w3.org/1999/xlink"><defs><path id="a" d="M0 225.908h280.421V0H0z"/></defs><g transform="matrix(1 0 0 -1 0 225.908)" fill="none" fill-rule="evenodd"><mask id="b" fill="#fff"><use xlink:href="#a"/></mask><g mask="url(#b)"><path d="M141.35 189.439c-.736 0-1.334.597-1.334 1.333v8.039a1.334 1.334 0 0 0 2.667 0v-8.039c0-.736-.597-1.333-1.333-1.333" fill="#825AB4" fill-rule="nonzero"/><path d="M145.371 193.458h-8.041a1.334 1.334 0 0 0 0 2.667h8.041a1.334 1.334 0 0 0 0-2.667" fill="#825AB4" fill-rule="nonzero"/><path d="M260.25 158.803c-.736 0-1.333.598-1.333 1.334v8.038a1.334 1.334 0 0 0 2.666 0v-8.038c0-.736-.597-1.334-1.333-1.334" fill="#2C5871" fill-rule="nonzero"/><path d="M264.27 162.822h-8.04a1.334 1.334 0 0 0 0 2.667h8.04a1.334 1.334 0 0 0 0-2.667" fill="#2C5871" fill-rule="nonzero"/><path d="M53.003 66.155c0-4.24 3.197-7.67 7.154-7.67h13.868V29.712l33.986 28.775h88.52c3.958 0 7.164 3.429 7.164 7.669v87.081c0 4.24-3.206 7.67-7.164 7.67H60.157c-3.957 0-7.154-3.43-7.154-7.67V66.155z" fill="#F58220" fill-rule="nonzero"/><path d="M46.693 170.087c-3.209 0-5.821-2.843-5.821-6.336V76.669c0-3.493 2.612-6.336 5.821-6.336h15.202V43.101l32.162 27.232h89.01c3.214 0 5.83 2.843 5.83 6.336v87.082c0 3.493-2.616 6.336-5.83 6.336H46.693zM59.228 37.349v30.318H46.693c-4.68 0-8.488 4.038-8.488 9.002v87.082c0 4.964 3.808 9.002 8.488 9.002h136.374c4.685 0 8.497-4.038 8.497-9.002V76.669c0-4.964-3.812-9.002-8.497-9.002H95.036L59.228 37.349z" fill="#825AB4" fill-rule="nonzero"/><path d="M46.693 170.087c-3.209 0-5.821-2.843-5.821-6.336V76.669c0-3.493 2.612-6.336 5.821-6.336h15.202V43.101l32.162 27.232h89.01c3.214 0 5.83 2.843 5.83 6.336v87.082c0 3.493-2.616 6.336-5.83 6.336H46.693zM59.228 37.349v30.318H46.693c-4.68 0-8.488 4.038-8.488 9.002v87.082c0 4.964 3.808 9.002 8.488 9.002h136.374c4.685 0 8.497-4.038 8.497-9.002V76.669c0-4.964-3.812-9.002-8.497-9.002H95.036L59.228 37.349z" stroke="#825AB4" stroke-width="1.333"/><path d="M101.33 67.667V49.223c0-3.495 2.611-6.338 5.823-6.338h89.004l32.167-27.23v27.23h15.204c3.21 0 5.82 2.843 5.82 6.338V136.3c0 3.496-2.61 6.34-5.82 6.34h-51.964V76.67c0-4.965-3.812-9.003-8.497-9.003h-81.738zM230.99 9.903l-35.809 30.316h-88.028c-4.682 0-8.49 4.038-8.49 9.004v21.11h84.404c3.214 0 5.83 2.843 5.83 6.336v68.638h54.631c4.68 0 8.487-4.04 8.487-9.007V49.223c0-4.966-3.807-9.004-8.487-9.004h-12.537V9.903z" fill="#825AB4" fill-rule="nonzero"/><path d="M101.33 67.667V49.223c0-3.495 2.611-6.338 5.823-6.338h89.004l32.167-27.23v27.23h15.204c3.21 0 5.82 2.843 5.82 6.338V136.3c0 3.496-2.61 6.34-5.82 6.34h-51.964V76.67c0-4.965-3.812-9.003-8.497-9.003h-81.738zM230.99 9.903l-35.809 30.316h-88.028c-4.682 0-8.49 4.038-8.49 9.004v21.11h84.404c3.214 0 5.83 2.843 5.83 6.336v68.638h54.631c4.68 0 8.487-4.04 8.487-9.007V49.223c0-4.966-3.807-9.004-8.487-9.004h-12.537V9.903z" stroke="#825AB4" stroke-width="1.333"/><path fill="#FFF" fill-rule="nonzero" d="M167.651 137.028H62.107v2.667h105.544zM167.651 116.167H62.107v2.666h105.544zM144.268 95.308H62.107v2.667h82.161z"/><path d="M32.547.667H29.88v12.169h10.287a4.326 4.326 0 0 1 4.32 4.321v9.612h3.896L42.56 36.851l.02.392c.014.292.022.586.022.885 0 10.827-8.808 19.633-19.635 19.633-10.827 0-19.635-8.806-19.635-19.633a19.51 19.51 0 0 1 5.735-13.87l.39-.389V.667H6.793v22.109C2.837 26.935.667 32.364.667 38.128c0 12.296 10.004 22.3 22.301 22.3 12.297 0 22.301-10.004 22.301-22.3 0-.208-.002-.413-.009-.617l7.743-13.408h-5.85v-6.946c0-3.852-3.134-6.988-6.986-6.988h-7.62V.667z" fill="#825AB4" fill-rule="nonzero"/><path d="M32.547.667H29.88v12.169h10.287a4.326 4.326 0 0 1 4.32 4.321v9.612h3.896L42.56 36.851l.02.392c.014.292.022.586.022.885 0 10.827-8.808 19.633-19.635 19.633-10.827 0-19.635-8.806-19.635-19.633a19.51 19.51 0 0 1 5.735-13.87l.39-.389V.667H6.793v22.109C2.837 26.935.667 32.364.667 38.128c0 12.296 10.004 22.3 22.301 22.3 12.297 0 22.301-10.004 22.301-22.3 0-.208-.002-.413-.009-.617l7.743-13.408h-5.85v-6.946c0-3.852-3.134-6.988-6.986-6.988h-7.62V.667z" stroke="#825AB4" stroke-width="1.333"/><path d="M216.477 109.43c-6.735 0-12.216-5.482-12.22-12.221.004-6.733 5.484-12.213 12.217-12.213 6.739 0 12.223 5.48 12.223 12.216-.003 6.737-5.484 12.218-12.22 12.218m-.003-27.101c-8.203 0-14.88 6.675-14.883 14.88.003 8.21 6.682 14.888 14.886 14.888 8.205 0 14.884-6.677 14.886-14.884 0-8.208-6.68-14.884-14.89-14.884" fill="#825AB4" fill-rule="nonzero"/><path d="M208.583 97.214l-2.666.001c.001 5.823 4.738 10.56 10.56 10.56v-2.666c-4.351 0-7.892-3.542-7.894-7.895M234.423 77.349c-.341 0-.682.13-.942.39l-8.414 8.415a1.334 1.334 0 0 0 1.886 1.886l8.413-8.415a1.332 1.332 0 0 0-.943-2.276M213.921 154.393h17.768V136.96h-17.768v17.434zm-18.224 37.347c.34 16.177 10.87 27.95 27.498 27.95 21.282 0 28.181-13.242 28.181-21.843 0-21.612-18.668-18.676-20.599-32.367v-4.305h-15.269v5.105c1.58 19.572 18.45 17.756 18.104 29.99 0 6.894-3.625 10.178-9.621 10.178-8.147 0-11.655-6.679-11.655-14.708h-16.639z" fill="#825AB4" fill-rule="nonzero"/><path d="M216.84 162.508h12.604v2.972c0 .062.005.125.013.186.91 6.454 5.28 9.584 9.506 12.612 5.448 3.902 11.08 7.936 11.08 19.568 0 7.095-5.611 20.51-26.847 20.51-14.875 0-25.221-10.1-26.11-25.283h13.949c.429 9.11 5.31 14.708 12.956 14.708 6.96 0 10.954-4.195 10.954-11.51.175-6.167-3.601-9.15-7.598-12.306-4.543-3.588-9.691-7.653-10.51-17.792l.003-3.665zm13.937-2.667h-15.27c-.735 0-1.332.597-1.332 1.333v5.107c.916 11.403 6.796 16.045 11.52 19.777 3.756 2.966 6.722 5.308 6.585 10.174-.001 5.906-2.79 8.882-8.29 8.882-9.315 0-10.32-9.353-10.32-13.374 0-.736-.598-1.334-1.334-1.334h-16.637a1.336 1.336 0 0 0-1.334 1.362c.367 17.497 11.954 29.254 28.83 29.254 23.346 0 29.514-15.16 29.514-23.176 0-13.002-6.477-17.642-12.193-21.736-4.09-2.932-7.627-5.464-8.405-10.725v-4.21c0-.737-.598-1.334-1.334-1.334zm-15.521-21.55h15.101v14.769h-15.101v-14.768zm16.433-2.666h-17.766c-.738 0-1.334.597-1.334 1.333v17.435c0 .736.596 1.333 1.334 1.333h17.766c.736 0 1.334-.597 1.334-1.333v-17.435c0-.736-.598-1.333-1.334-1.333z" fill="#2C5871" fill-rule="nonzero"/><path d="M258.951 100.392a6.343 6.343 0 0 1 6.344 6.347 6.344 6.344 0 1 1-12.69 0 6.345 6.345 0 0 1 6.346-6.347m-18.825 10.068h3.113c.723 0 1.507.556 1.73 1.247l.585 1.406c.32.646.17 1.59-.34 2.104l-2.203 2.203a1.306 1.306 0 0 0 0 1.852l3.399 3.41a1.331 1.331 0 0 0 1.862 0l2.206-2.203c.513-.512 1.453-.663 2.101-.34l1.405.58c.68.228 1.243 1.002 1.243 1.73v3.11c0 .72.596 1.317 1.315 1.317h4.818c.722 0 1.307-.596 1.307-1.316v-3.11c0-.729.565-1.503 1.25-1.731l1.407-.58c.652-.323 1.594-.172 2.107.34l2.2 2.204a1.323 1.323 0 0 0 1.856 0l3.408-3.411a1.316 1.316 0 0 0 0-1.852l-2.207-2.203c-.506-.514-.658-1.458-.342-2.104l.582-1.406c.23-.691 1.01-1.247 1.731-1.247h3.117c.72 0 1.312-.59 1.312-1.315v-4.812a1.32 1.32 0 0 0-1.312-1.314h-3.117c-.721 0-1.501-.563-1.73-1.244l-.583-1.412c-.316-.643-.164-1.594.342-2.103l2.207-2.203a1.322 1.322 0 0 0 0-1.857l-3.408-3.407a1.323 1.323 0 0 0-1.856 0l-2.2 2.206c-.513.51-1.455.662-2.107.344l-1.406-.586c-.686-.23-1.25-1.004-1.25-1.726v-3.115c0-.725-.586-1.317-1.308-1.317h-4.818c-.719 0-1.315.592-1.315 1.317v3.115c0 .722-.563 1.497-1.243 1.726l-1.405.586c-.648.318-1.588.166-2.101-.344l-2.206-2.206a1.331 1.331 0 0 0-1.862 0L243.01 94.2a1.313 1.313 0 0 0 0 1.857l2.203 2.203c.51.51.66 1.46.34 2.103l-.584 1.412c-.224.68-1.008 1.244-1.73 1.244h-3.114c-.724 0-1.312.592-1.312 1.314v4.812c0 .724.588 1.315 1.312 1.315" fill="#F58220" fill-rule="nonzero"/><path d="M258.951 111.751a5.018 5.018 0 0 1-5.012-5.013 5.018 5.018 0 0 1 5.012-5.013c2.763 0 5.01 2.249 5.01 5.013a5.018 5.018 0 0 1-5.01 5.013m0-12.693c-4.235 0-7.679 3.445-7.679 7.68 0 4.235 3.444 7.68 7.68 7.68 4.232 0 7.676-3.445 7.676-7.68 0-4.235-3.444-7.68-7.677-7.68m-7.137-4.216a3.1 3.1 0 0 0 1.354-.303l1.328-.55c1.142-.383 2.064-1.67 2.064-2.96v-3.114l4.774.018v3.097c0 1.292.928 2.577 2.158 2.992l1.32.552c.331.164.8.268 1.28.268.875 0 1.706-.328 2.28-.897l2.203-2.211 3.376 3.41-2.204 2.173c-.912.916-1.167 2.477-.597 3.634l.545 1.33c.383 1.145 1.67 2.07 2.964 2.07h3.117l-.02 4.794-3.097-.02c-1.3 0-2.588.93-2.996 2.16l-.548 1.318c-.53 1.076-.277 2.636.624 3.55l2.213 2.21-3.409 3.378-2.17-2.204c-.894-.894-2.5-1.158-3.64-.594l-1.325.543c-1.144.376-2.074 1.665-2.074 2.964v3.11l-4.792-.017.018-3.093c0-1.297-.925-2.585-2.153-2.996l-1.319-.548c-.322-.164-.793-.27-1.278-.27-.872 0-1.7.327-2.274.898l-2.206 2.205-3.374-3.408 2.2-2.172c.914-.921 1.164-2.484.591-3.64l-.545-1.324c-.364-1.137-1.654-2.07-2.963-2.07h-3.113l.021-4.791 3.092.017c1.304 0 2.592-.93 2.997-2.16l.55-1.32c.538-1.072.286-2.637-.628-3.553l-2.204-2.204 3.4-3.38 2.181 2.208c.576.572 1.407.9 2.279.9m9.546-9.576h-4.818a2.651 2.651 0 0 0-2.648 2.65v3.114c0 .147-.196.416-.338.465l-1.489.618c-.336.156-.575.014-.65-.06l-2.202-2.203c-1.005-.996-2.747-.993-3.744-.004l-3.404 3.413a2.62 2.62 0 0 0-.775 1.872c0 .71.278 1.375.782 1.874l2.197 2.197c.101.101.155.435.09.564l-.623 1.5c-.075.216-.342.419-.499.419h-3.113a2.65 2.65 0 0 0-2.646 2.649v4.81a2.649 2.649 0 0 0 2.646 2.649h3.113c.15 0 .419.188.463.325l.62 1.505c.105.22.052.547-.056.656l-2.198 2.198a2.612 2.612 0 0 0-.776 1.873c.002.712.28 1.377.786 1.873l3.388 3.4c1.01 1.002 2.75.994 3.745.007l2.21-2.208c.07-.072.475-.135.563-.09l1.491.62c.225.078.419.349.419.498v3.11a2.651 2.651 0 0 0 2.648 2.65h4.818a2.648 2.648 0 0 0 2.64-2.65v-3.11c0-.148.196-.419.338-.465l1.496-.615c.352-.163.581-.02.656.052l2.198 2.203c1 .996 2.746.994 3.74.002l3.41-3.413c.494-.49.77-1.155.772-1.864a2.616 2.616 0 0 0-.775-1.875l-2.204-2.201c-.101-.104-.156-.436-.088-.576l.617-1.481c.08-.231.35-.424.5-.424h3.116a2.649 2.649 0 0 0 2.646-2.648v-4.811a2.65 2.65 0 0 0-2.646-2.65h-3.117c-.15 0-.42-.194-.467-.334l-.613-1.496c-.101-.213-.047-.55.056-.655l2.201-2.198a2.65 2.65 0 0 0 .003-3.742l-3.41-3.41c-.997-.994-2.745-.992-3.74 0l-2.202 2.208c-.07.068-.481.137-.577.088l-1.48-.62c-.23-.08-.43-.348-.43-.495v-3.115a2.648 2.648 0 0 0-2.64-2.65M166.675 198.854h8.71c.058 1.283.32 3.133 1.26 4.39 4.043 5.203 4.214 10.11 4.215 10.158 0 5.424-4.416 9.839-9.845 9.839-5.427 0-9.841-4.415-9.841-9.843 0-.044.174-4.955 4.197-10.135.953-1.268 1.233-3.126 1.304-4.409m10.048-2.667h-11.375a1.335 1.335 0 0 0-1.33 1.414c.064 1.085-.088 3.142-.766 4.042-4.69 6.042-4.745 11.7-4.745 11.755 0 6.899 5.61 12.51 12.508 12.51 6.899 0 12.512-5.611 12.512-12.51 0-.056-.055-5.713-4.761-11.77-.686-.918-.779-3.102-.714-4.013a1.333 1.333 0 0 0-1.329-1.428M176.937 192.822h-11.842a1.333 1.333 0 1 0 0 2.666h11.842a1.334 1.334 0 0 0 0-2.666M175.504 189.505h-8.975a1.333 1.333 0 1 0 0 2.667h8.975a1.334 1.334 0 0 0 0-2.667" fill="#825AB4" fill-rule="nonzero"/><path d="M167.737 197.654l-1.912 15.787 2.646.32 1.912-15.787zM174.296 197.654l-2.647.32 1.912 15.787 2.647-.32z" fill="#825AB4" fill-rule="nonzero"/><path d="M173.704 209.141c-.389 0-.693.12-.932.29-.476-.34-1.385-.34-1.86 0-.478-.34-1.377-.34-1.848-.003a1.554 1.554 0 0 0-.926-.287c-1.099 0-1.522.955-1.682 1.314-.022.049-.042.1-.068.145.076-.136.378-.416.823-.416v2.667c.385 0 .69-.118.927-.287.474.337 1.377.337 1.85.001.476.336 1.382.335 1.855-.002.475.34 1.384.338 1.861-.003.24.17.543.29.932.29v-2.666c.443 0 .743.279.82.413-.026-.044-.046-.094-.068-.145-.16-.359-.586-1.31-1.684-1.31" fill="#825AB4" fill-rule="nonzero"/></g></g></svg>