<svg viewBox="0 0 24 24" xmlns="http://www.w3.org/2000/svg"><path d="M12.093 13.626c1.012 1.228.957 3.048-.193 4.195l-4.574 4.575a3.139 3.139 0 0 1-4.431 0L1.167 20.67a3.14 3.14 0 0 1 .002-4.43l4.574-4.576c1.148-1.149 2.965-1.202 4.196-.193l-1.887 1.888a.542.542 0 0 0-.476.136l-4.575 4.578a.549.549 0 0 0 0 .765l1.726 1.727a.55.55 0 0 0 .766 0l4.574-4.575a.539.539 0 0 0 .139-.477l1.887-1.886zm4.62-6.777c.45.45.45 1.185 0 1.635l-8.405 8.404a1.157 1.157 0 0 1-1.634-1.634l8.405-8.405a1.158 1.158 0 0 1 1.634 0zm5.506-3.78a3.142 3.142 0 0 1 0 4.432l-4.576 4.575c-1.148 1.148-2.965 1.202-4.195.192l1.887-1.888a.53.53 0 0 0 .476-.137l4.577-4.575a.553.553 0 0 0 0-.766l-1.729-1.728a.55.55 0 0 0-.764 0L13.32 7.753a.533.533 0 0 0-.14.475l-1.886 1.886c-1.01-1.229-.956-3.047.193-4.195l4.574-4.576a3.14 3.14 0 0 1 4.431 0L22.22 3.07z" fill="#F58220" fill-rule="evenodd"/></svg>