<svg viewBox="0 0 34 34" xmlns="http://www.w3.org/2000/svg" xmlns:xlink="http://www.w3.org/1999/xlink"><defs><path id="a" d="M33.505 3.192l-.355-.355L2.995 32.995l.355.355z"/><path id="b" d="M2.924 3.123l.357-.357 30.295 30.299-.357.357z"/></defs><g fill="none" fill-rule="evenodd"><g transform="translate(-1 -1)"><use fill="#825AB4" xlink:href="#a"/><path stroke="#825AB4" d="M32.8 3.19l-.002.002.352.352.001-.002v-.351H32.8zM3.35 32.644l-.001.002v.352H3.7l.002-.002-.352-.352zm30.862-29.45L3.35 34.057l-1.062-1.063L33.15 2.13l1.062 1.062z"/></g><g transform="translate(-1 -1)"><use fill="#825AB4" xlink:href="#b"/><path stroke="#825AB4" d="M3.28 3.473l.35-.35-.003-.004h-.35v.35l.004.004zm29.59 29.592l.003.004h.35v-.35l-.004-.004-.35.35zM2.215 3.123l1.065-1.065 31.002 31.007-1.064 1.064L2.216 3.123z"/></g></g></svg>
