<svg viewBox="0 0 22 23" xmlns="http://www.w3.org/2000/svg"><path d="M8.22 11.527l7.169 5.03a3.493 3.493 0 0 1 2.486-1.04c1.949 0 3.528 1.601 3.528 3.576s-1.58 3.576-3.528 3.576-3.528-1.6-3.528-3.576c0-.601.147-1.168.405-1.665l-7.168-5.03a4.344 4.344 0 0 1-3.18 1.386C1.983 13.784.02 11.794.02 9.34c0-2.454 1.962-4.443 4.383-4.443 1.516 0 2.853.78 3.64 1.967l7.015-2.948a2.973 2.973 0 0 1-.07-.645c0-1.616 1.292-2.925 2.886-2.925s2.887 1.31 2.887 2.925c0 1.616-1.293 2.926-2.887 2.926-.995 0-1.872-.51-2.391-1.287L8.529 7.834c.167.47.258.978.258 1.507a4.47 4.47 0 0 1-.566 2.186z" fill="#F58220" fill-rule="evenodd"/></svg>