<svg viewBox="0 0 90 82" xmlns="http://www.w3.org/2000/svg" xmlns:xlink="http://www.w3.org/1999/xlink"><defs><path id="a" d="M0 81.423h89.333V0H0z"/></defs><g transform="matrix(1 0 0 -1 0 81.423)" fill="none" fill-rule="evenodd"><mask id="b" fill="#fff"><use xlink:href="#a"/></mask><g mask="url(#b)"><path d="M20.667 10.667C25.333 8 30 8.667 30 2V.667H.667V2c0 6.667 4.666 6 9.333 8.667h10.667z" fill="#67DDE0" fill-rule="nonzero"/><path d="M18 8l-2.667 1.333L12.667 8 10 10.667l1.333 2H12v2.666l3.333-.666 3.334.666v-2.666h.666l1.334-2z" fill="#FFF" fill-rule="nonzero"/><path d="M20.667 10.667C25.333 8 30 8.667 30 2V.667H.667V2c0 6.667 4.666 6 9.333 8.667" stroke="#4D5152" stroke-width="1.333"/><path d="M18 8l-2.667 1.333L12.667 8 10 10.667l1.333 2 4-.667 4 .667 1.334-2zM18.667 15.333v-2.666M12 12.667v2.666M14.667 3.333H16M14.667 6H16" stroke="#4D5152" stroke-width="1.333"/><path d="M21.333 24v-2.667c-.666-4.666-2.666-6-2.666-6-1.334-.666-3.334-.666-3.334-.666s-2 0-3.333.666c0 0-2 1.334-2.667 6V24L12 25.333l6.667-2.666L21.333 24z" fill="#FFF" fill-rule="nonzero"/><path d="M9.333 24c0 4.05 1.95 6 6 6 4.051 0 6-1.95 6-6l-2.666-1.333L15.333 24 12 25.333 9.333 24z" fill="#FFB957" fill-rule="nonzero"/><path d="M21.333 24v-2.667c-.666-4.666-2.666-6-2.666-6-1.334-.666-3.334-.666-3.334-.666s-2 0-3.333.666c0 0-2 1.334-2.667 6V24M9.333 24c0 4.05 1.95 6 6 6 4.051 0 6-1.95 6-6" stroke="#4D5152" stroke-width="1.333"/><path d="M9.333 24L12 25.334 15.333 24l3.333-1.333L21.333 24" stroke="#4D5152" stroke-width="1.333"/><path d="M50 10.667C54.667 8 59.333 8.667 59.333 2V.667H30V2c0 6.667 4.667 6 9.333 8.667H50z" fill="#67DDE0" fill-rule="nonzero"/><path d="M47.333 8l-2.667 1.333L42 8l-2.667 2.667 1.333 2h.667v2.666l3.333-.666 3.334.666v-2.666h.666l1.334-2z" fill="#FFF" fill-rule="nonzero"/><path d="M50 10.667C54.667 8 59.333 8.667 59.333 2V.667H30V2c0 6.667 4.667 6 9.333 8.667" stroke="#4D5152" stroke-width="1.333"/><path d="M47.333 8l-2.667 1.333L42 8l-2.667 2.667 1.333 2 4-.667 4 .667 1.334-2zM48 15.333v-2.666M41.333 12.667v2.666M44 3.333h1.333M44 6h1.333" stroke="#4D5152" stroke-width="1.333"/><path d="M50.667 24v-2.667c-.667-4.666-2.667-6-2.667-6-1.333-.666-3.333-.666-3.333-.666s-2 0-3.334.666c0 0-2 1.334-2.666 6V24l2.666 1.333L48 22.667 50.667 24z" fill="#FFF" fill-rule="nonzero"/><path d="M38.667 24c0 4.05 1.949 6 6 6 4.05 0 6-1.95 6-6L48 22.667 44.667 24l-3.334 1.333L38.667 24z" fill="#FFB957" fill-rule="nonzero"/><path d="M50.667 24v-2.667c-.667-4.666-2.667-6-2.667-6-1.333-.666-3.333-.666-3.333-.666s-2 0-3.334.666c0 0-2 1.334-2.666 6V24M38.667 24c0 4.05 1.949 6 6 6 4.05 0 6-1.95 6-6" stroke="#4D5152" stroke-width="1.333"/><path d="M38.667 24l2.667 1.334L44.667 24 48 22.667 50.667 24" stroke="#4D5152" stroke-width="1.333"/><path d="M79.333 10.667C84 8 88.667 8.667 88.667 2V.667H59.333V2c0 6.667 4.667 6 9.334 8.667h10.666z" fill="#67DDE0" fill-rule="nonzero"/><path d="M76.667 8L74 9.333 71.334 8l-2.667 2.667 1.333 2h.667v2.666L74 14.667l3.334.666v-2.666H78l1.334-2z" fill="#FFF" fill-rule="nonzero"/><path d="M79.333 10.667C84 8 88.667 8.667 88.667 2V.667H59.333V2c0 6.667 4.667 6 9.334 8.667" stroke="#4D5152" stroke-width="1.333"/><path d="M76.667 8L74 9.333 71.334 8l-2.667 2.667 1.333 2L74 12l4 .667 1.334-2zM77.333 15.333v-2.666M70.667 12.667v2.666M73.333 3.333h1.334M73.333 6h1.334" stroke="#4D5152" stroke-width="1.333"/><path d="M80 24v-2.667c-.667-4.666-2.667-6-2.667-6C76 14.667 74 14.667 74 14.667s-2 0-3.333.666c0 0-2 1.334-2.667 6V24l2.667 1.333 6.666-2.666L80 24z" fill="#FFF" fill-rule="nonzero"/><path d="M68 24c0 4.05 1.95 6 6 6s6-1.95 6-6l-2.667-1.333L74 24l-3.333 1.333L68 24z" fill="#FFB957" fill-rule="nonzero"/><path d="M80 24v-2.667c-.667-4.666-2.667-6-2.667-6C76 14.667 74 14.667 74 14.667s-2 0-3.333.666c0 0-2 1.334-2.667 6V24M68 24c0 4.05 1.95 6 6 6s6-1.95 6-6" stroke="#4D5152" stroke-width="1.333"/><path d="M68 24l2.667 1.334L74 24l3.333-1.333L80 24" stroke="#4D5152" stroke-width="1.333"/><path d="M6 50h5.89L18 43.512 24.11 50h15.78L46 43.512 52.11 50h15.78L74 43.512 80.11 50H86c.737 0 1.333.596 1.333 1.333v28c0 .738-.596 1.334-1.333 1.334H6a1.332 1.332 0 0 1-1.333-1.334v-28C4.667 50.596 5.263 50 6 50" fill="#FFF" fill-rule="nonzero"/><path d="M6 50h5.89L18 43.512 24.11 50h15.78L46 43.512 52.11 50h15.78L74 43.512 80.11 50H86c.737 0 1.333.596 1.333 1.333v28c0 .738-.596 1.334-1.333 1.334H6a1.332 1.332 0 0 1-1.333-1.334v-28C4.667 50.596 5.263 50 6 50z" stroke="#535859" stroke-width="1.512"/><path d="M14 64.11h2.667M19.333 64.11H22M24.667 64.11h2.666M64.667 64.11h2.666M70 64.11h2.667M75.333 64.11H78M39.333 64.11H42M44.667 64.11h2.666M50 64.11h2.667" stroke="#535859" stroke-width="2.667"/></g></g></svg>