<svg viewBox="0 0 699 403" xmlns="http://www.w3.org/2000/svg" xmlns:xlink="http://www.w3.org/1999/xlink"><defs><path d="M571.572 381.099c0 12.067-9.782 21.484-21.847 21.484H23.22c-12.065 0-21.847-9.417-21.847-21.484V23.509c0-12.067 9.782-21.849 21.847-21.849h526.504c12.065 0 21.847 9.782 21.847 21.85v357.589z" id="b"/><filter x="-.2%" y="-.2%" width="100.3%" height="100.5%" filterUnits="objectBoundingBox" id="c"><feGaussianBlur stdDeviation="1" in="SourceAlpha" result="shadowBlurInner1"/><feOffset in="shadowBlurInner1" result="shadowOffsetInner1"/><feComposite in="shadowOffsetInner1" in2="SourceAlpha" operator="arithmetic" k2="-1" k3="1" result="shadowInnerInner1"/><feColorMatrix values="0 0 0 0 1 0 0 0 0 1 0 0 0 0 1 0 0 0 0.75 0" in="shadowInnerInner1"/></filter><path d="M549.725 3.845H23.221c-10.842 0-19.662 8.822-19.662 19.664V381.1c0 10.842 8.82 19.663 19.662 19.663h526.504c10.842 0 19.662-8.82 19.662-19.663V23.509c0-10.842-8.82-19.664-19.662-19.664z" id="e"/><filter x="-.5%" y="-.8%" width="101.1%" height="101.5%" filterUnits="objectBoundingBox" id="d"><feOffset in="SourceAlpha" result="shadowOffsetOuter1"/><feColorMatrix values="0 0 0 0 0.043137256 0 0 0 0 0.043137256 0 0 0 0 0.047058824 0 0 0 0.5 0" in="shadowOffsetOuter1" result="shadowMatrixOuter1"/><feOffset in="SourceAlpha" result="shadowOffsetOuter2"/><feGaussianBlur stdDeviation="1" in="shadowOffsetOuter2" result="shadowBlurOuter2"/><feColorMatrix values="0 0 0 0 1 0 0 0 0 1 0 0 0 0 1 0 0 0 0.7 0" in="shadowBlurOuter2" result="shadowMatrixOuter2"/><feMerge><feMergeNode in="shadowMatrixOuter1"/><feMergeNode in="shadowMatrixOuter2"/></feMerge></filter><filter x="-.6%" y="-.9%" width="101.2%" height="101.8%" filterUnits="objectBoundingBox" id="f"><feGaussianBlur stdDeviation="1.5" in="SourceAlpha" result="shadowBlurInner1"/><feOffset in="shadowBlurInner1" result="shadowOffsetInner1"/><feComposite in="shadowOffsetInner1" in2="SourceAlpha" operator="arithmetic" k2="-1" k3="1" result="shadowInnerInner1"/><feColorMatrix values="0 0 0 0 1 0 0 0 0 1 0 0 0 0 1 0 0 0 0.24 0" in="shadowInnerInner1"/></filter><linearGradient x1="50%" y1="100%" x2="50%" y2="0%" id="h"><stop stop-color="#777A85" offset="0%"/><stop stop-color="#777A85" offset="100%"/><stop stop-color="#4A4E58" offset="200%"/></linearGradient><path d="M549.725 4.21H23.221c-10.641 0-19.298 8.657-19.298 19.299V381.827c0 4.618 3.757 8.375 8.375 8.375h548.35c4.618 0 8.375-3.757 8.375-8.375V23.51c0-10.642-8.657-19.3-19.298-19.3z" id="g"/><filter x="-.3%" y="-.4%" width="100.5%" height="100.8%" filterUnits="objectBoundingBox" id="i"><feGaussianBlur stdDeviation="1.5" in="SourceAlpha" result="shadowBlurInner1"/><feOffset in="shadowBlurInner1" result="shadowOffsetInner1"/><feComposite in="shadowOffsetInner1" in2="SourceAlpha" operator="arithmetic" k2="-1" k3="1" result="shadowInnerInner1"/><feColorMatrix values="0 0 0 0 0 0 0 0 0 0 0 0 0 0 0 0 0 0 0.8 0" in="shadowInnerInner1"/></filter><path d="M549.725 5.666H23.221c-9.838 0-17.842 8.004-17.842 17.843V381.827a6.926 6.926 0 0 0 6.919 6.919h548.35a6.926 6.926 0 0 0 6.919-6.919V23.51c0-9.839-8.004-17.843-17.842-17.843z" id="k"/><filter x="-.9%" y="-1%" width="101.8%" height="102.6%" filterUnits="objectBoundingBox" id="j"><feOffset in="SourceAlpha" result="shadowOffsetOuter1"/><feColorMatrix values="0 0 0 0 0 0 0 0 0 0 0 0 0 0 0 0 0 0 0.3 0" in="shadowOffsetOuter1" result="shadowMatrixOuter1"/><feOffset dy="1" in="SourceAlpha" result="shadowOffsetOuter2"/><feGaussianBlur stdDeviation="1.5" in="shadowOffsetOuter2" result="shadowBlurOuter2"/><feColorMatrix values="0 0 0 0 0 0 0 0 0 0 0 0 0 0 0 0 0 0 1 0" in="shadowBlurOuter2" result="shadowMatrixOuter2"/><feMerge><feMergeNode in="shadowMatrixOuter1"/><feMergeNode in="shadowMatrixOuter2"/></feMerge></filter><linearGradient x1="50%" y1="100%" x2="50%" y2="0%" id="m"><stop stop-color="#1B1C1F" offset="0%"/><stop stop-color="#1D1E21" offset="100%"/><stop stop-color="#1E1E22" offset="200%"/></linearGradient><path d="M6.108 374.183v7.599c0 3.437 2.776 6.233 6.19 6.233h548.35c3.414 0 6.19-2.796 6.19-6.233v-7.599H6.108z" id="l"/><filter x="-.1%" y="-2.9%" width="100.2%" height="105.9%" filterUnits="objectBoundingBox" id="n"><feOffset dy="1" in="SourceAlpha" result="shadowOffsetInner1"/><feComposite in="shadowOffsetInner1" in2="SourceAlpha" operator="arithmetic" k2="-1" k3="1" result="shadowInnerInner1"/><feColorMatrix values="0 0 0 0 0.1254902 0 0 0 0 0.12156863 0 0 0 0 0.14117648 0 0 0 1 0" in="shadowInnerInner1"/></filter><path d="M3.473 1.499a2.184 2.184 0 1 1-.001 4.368 2.184 2.184 0 0 1 0-4.368z" id="p"/><filter x="-28.6%" y="-14.3%" width="157.1%" height="157.1%" filterUnits="objectBoundingBox" id="o"><feOffset dy="1" in="SourceAlpha" result="shadowOffsetOuter1"/><feGaussianBlur stdDeviation=".5" in="shadowOffsetOuter1" result="shadowBlurOuter1"/><feColorMatrix values="0 0 0 0 0 0 0 0 0 0 0 0 0 0 0 0 0 0 0.75 0" in="shadowBlurOuter1"/></filter><path d="M3.473 2.59a1.093 1.093 0 1 1 0 2.184 1.093 1.093 0 0 1 0-2.183z" id="q"/><filter x="-18%" y="-18%" width="136%" height="136%" filterUnits="objectBoundingBox" id="r"><feGaussianBlur stdDeviation=".5" in="SourceAlpha" result="shadowBlurInner1"/><feOffset dx=".6" dy=".8" in="shadowBlurInner1" result="shadowOffsetInner1"/><feComposite in="shadowOffsetInner1" in2="SourceAlpha" operator="arithmetic" k2="-1" k3="1" result="shadowInnerInner1"/><feColorMatrix values="0 0 0 0 0 0 0 0 0 0 0 0 0 0 0 0 0 0 0.46 0" in="shadowInnerInner1"/></filter><radialGradient cy="100%" fx="50%" fy="100%" r="100%" gradientTransform="matrix(0 -1 90 0 -89.5 1.5)" id="t"><stop stop-color="#1402CF" offset="0%"/><stop stop-color="#1402CF" offset="100%"/><stop stop-color="#153B77" offset="200%"/><stop stop-color="#153B77" offset="300%"/></radialGradient><path d="M3.473 2.89a.836.836 0 1 1 .001 1.672.836.836 0 0 1-.001-1.672z" id="s"/><filter filterUnits="objectBoundingBox" id="u"><feOffset dy="-1" in="SourceAlpha" result="shadowOffsetInner1"/><feComposite in="shadowOffsetInner1" in2="SourceAlpha" operator="arithmetic" k2="-1" k3="1" result="shadowInnerInner1"/><feColorMatrix values="0 0 0 0 1 0 0 0 0 1 0 0 0 0 1 0 0 0 1 0" in="shadowInnerInner1"/></filter><path id="v" d="M0 0h6v5H0z"/><pattern id="w" y="-10%" height="110%" width="100%"><use xlink:href="#a" transform="scale(1.2)"/></pattern><path id="y" d="M0 0h5v5H0z"/><path id="z" d="M2 3h1v2H2z"/><linearGradient x1="50%" y1="100%" x2="50%" y2="0%" id="B"><stop stop-color="#2D2C31" offset="0%"/><stop stop-color="#2D2C31" offset="100%"/><stop stop-color="#403F45" offset="200%"/><stop stop-color="#403F45" offset="300%"/><stop stop-color="#4A494E" offset="400%"/><stop stop-color="#515056" offset="500%"/><stop stop-color="#747377" offset="600%"/><stop stop-color="#757478" offset="700%"/><stop stop-color="#7B7B7E" offset="800%"/><stop stop-color="#78787C" offset="900%"/></linearGradient><path d="M2.02 5.114s14.92 9.839 111.804 9.839h473.297c96.884 0 111.806-9.839 111.806-9.839H2.019z" id="A"/><filter x="-.2%" y="-12.5%" width="100.4%" height="125%" filterUnits="objectBoundingBox" id="C"><feGaussianBlur stdDeviation="1.5" in="SourceAlpha" result="shadowBlurInner1"/><feOffset in="shadowBlurInner1" result="shadowOffsetInner1"/><feComposite in="shadowOffsetInner1" in2="SourceAlpha" operator="arithmetic" k2="-1" k3="1" result="shadowInnerInner1"/><feColorMatrix values="0 0 0 0 0 0 0 0 0 0 0 0 0 0 0 0 0 0 0.68 0" in="shadowInnerInner1"/></filter><linearGradient x1="0%" y1="50%" y2="50%" id="E"><stop stop-color="#302F35" stop-opacity=".75" offset="0%"/><stop stop-color="#2F2E34" stop-opacity="0" offset="100%"/><stop stop-color="#26252B" stop-opacity="0" offset="200%"/><stop stop-color="#25242A" stop-opacity=".75" offset="300%"/></linearGradient><path d="M2.02 5.114s14.92 9.839 111.804 9.839h473.297c96.884 0 111.806-9.839 111.806-9.839H2.019z" id="D"/><linearGradient x1="0%" y1="50%" y2="50%" id="G"><stop stop-color="#CECDD1" offset="0%"/><stop stop-color="#D1D1D4" offset="100%"/><stop stop-color="#C2C2C6" offset="200%"/><stop stop-color="#BFBFC3" offset="300%"/><stop stop-color="#DAD9DB" offset="400%"/><stop stop-color="#DBDADC" offset="500%"/><stop stop-color="#A2A1A6" offset="600%"/><stop stop-color="#2B2A2E" offset="700%"/><stop stop-color="#757579" offset="800%"/></linearGradient><path d="M1.931 1.11a.281.281 0 0 0-.276.285V4.83c0 .157.124.285.276.285h281.91V1.11H1.93z" id="F"/><filter x="0%" y="0%" width="100%" height="100%" filterUnits="objectBoundingBox" id="H"><feOffset in="SourceAlpha" result="shadowOffsetInner1"/><feComposite in="shadowOffsetInner1" in2="SourceAlpha" operator="arithmetic" k2="-1" k3="1" result="shadowInnerInner1"/><feColorMatrix values="0 0 0 0 0 0 0 0 0 0 0 0 0 0 0 0 0 0 0.05 0" in="shadowInnerInner1"/></filter><path d="M699.015 1.11c.152 0 .276.128.276.285V4.83a.281.281 0 0 1-.276.285h-281.91V1.11h281.91z" id="I"/><filter x="0%" y="0%" width="100%" height="100%" filterUnits="objectBoundingBox" id="J"><feOffset in="SourceAlpha" result="shadowOffsetInner1"/><feComposite in="shadowOffsetInner1" in2="SourceAlpha" operator="arithmetic" k2="-1" k3="1" result="shadowInnerInner1"/><feColorMatrix values="0 0 0 0 0 0 0 0 0 0 0 0 0 0 0 0 0 0 0.05 0" in="shadowInnerInner1"/></filter><linearGradient x1="0%" y1="50%" y2="50%" id="M"><stop stop-color="#4F4E52" offset="0%"/><stop stop-color="#626265" offset="100%"/><stop stop-color="#848387" offset="200%"/><stop stop-color="#A2A2A6" offset="300%"/><stop stop-color="#B8B8BB" offset="400%"/><stop stop-color="#C7C6CA" offset="500%"/><stop stop-color="#C3C2C8" offset="600%"/><stop stop-color="#C3C2C8" offset="700%"/><stop stop-color="#AFAEB2" offset="800%"/><stop stop-color="#99999C" offset="900%"/><stop stop-color="#605F63" offset="1000%"/><stop stop-color="#4D4C50" offset="1100%"/></linearGradient><path d="M364.41 1.304h-27.874s-45.832.024-52.695-.195v3.856s0 1.607 23.574 1.607h86.116c23.574 0 23.574-1.607 23.574-1.607V1.11c-6.862.219-52.694.195-52.694.195z" id="L"/><filter x="-1.5%" y="-12.5%" width="102.9%" height="150%" filterUnits="objectBoundingBox" id="K"><feOffset dy="1" in="SourceAlpha" result="shadowOffsetOuter1"/><feGaussianBlur stdDeviation=".5" in="shadowOffsetOuter1" result="shadowBlurOuter1"/><feColorMatrix values="0 0 0 0 0 0 0 0 0 0 0 0 0 0 0 0 0 0 0.03 0" in="shadowBlurOuter1"/></filter><filter x="-.7%" y="0%" width="101.5%" height="125%" filterUnits="objectBoundingBox" id="N"><feOffset in="SourceAlpha" result="shadowOffsetInner1"/><feComposite in="shadowOffsetInner1" in2="SourceAlpha" operator="arithmetic" k2="-1" k3="1" result="shadowInnerInner1"/><feColorMatrix values="0 0 0 0 1 0 0 0 0 1 0 0 0 0 1 0 0 0 0.03 0" in="shadowInnerInner1"/></filter><path d="M408.637 6.936l9.151-.36h275.68a64.48 64.48 0 0 1-1.746.53l-283.085-.17zm-128.559-.364l8.74.364L9.9 7.106a47.87 47.87 0 0 1-1.695-.53l271.872-.004z" id="P"/><filter x="-.1%" y="-37.5%" width="100.1%" height="150%" filterUnits="objectBoundingBox" id="O"><feOffset dy="-1" in="SourceAlpha" result="shadowOffsetOuter1"/><feComposite in="shadowOffsetOuter1" in2="SourceAlpha" operator="out" result="shadowOffsetOuter1"/><feColorMatrix values="0 0 0 0 0 0 0 0 0 0 0 0 0 0 0 0 0 0 0.06 0" in="shadowOffsetOuter1"/></filter><linearGradient x1="0%" y1="50%" y2="50%" id="S"><stop stop-color="#000101" stop-opacity=".5" offset="0%"/><stop stop-color="#000101" stop-opacity="0" offset="100%"/><stop stop-opacity="0" offset="200%"/><stop stop-opacity=".5" offset="300%"/><stop stop-opacity=".5" offset="400%"/></linearGradient><path d="M433.258 11.406c-.519.301.551.582 2.389.627 1.837.045 3.747-.162 4.266-.463.518-.301-.552-.582-2.39-.627-1.837-.045-3.747.162-4.265.463z" id="R"/><filter x="-4.5%" width="109.1%" height="140%" filterUnits="objectBoundingBox" id="Q"><feOffset dy="1" in="SourceAlpha" result="shadowOffsetOuter1"/><feColorMatrix values="0 0 0 0 1 0 0 0 0 1 0 0 0 0 1 0 0 0 0.1 0" in="shadowOffsetOuter1"/></filter><filter x="-9.1%" y="-20%" width="118.2%" height="160%" filterUnits="objectBoundingBox" id="T"><feGaussianBlur stdDeviation=".5" in="SourceAlpha" result="shadowBlurInner1"/><feOffset dy="1" in="shadowBlurInner1" result="shadowOffsetInner1"/><feComposite in="shadowOffsetInner1" in2="SourceAlpha" operator="arithmetic" k2="-1" k3="1" result="shadowInnerInner1"/><feColorMatrix values="0 0 0 0 0 0 0 0 0 0 0 0 0 0 0 0 0 0 0.4 0" in="shadowInnerInner1"/></filter><path d="M628.393 11.042c-.41.301.436.582 1.886.627 1.451.045 2.96-.162 3.369-.464.408-.3-.436-.58-1.887-.626-1.45-.045-2.959.162-3.368.463z" id="V"/><filter x="-5%" y="-12.5%" width="110%" height="150%" filterUnits="objectBoundingBox" id="U"><feOffset dy="1" in="SourceAlpha" result="shadowOffsetOuter1"/><feColorMatrix values="0 0 0 0 1 0 0 0 0 1 0 0 0 0 1 0 0 0 0.1 0" in="shadowOffsetOuter1"/></filter><filter y="-25%" height="175%" filterUnits="objectBoundingBox" id="W"><feGaussianBlur stdDeviation=".5" in="SourceAlpha" result="shadowBlurInner1"/><feOffset dy="1" in="shadowBlurInner1" result="shadowOffsetInner1"/><feComposite in="shadowOffsetInner1" in2="SourceAlpha" operator="arithmetic" k2="-1" k3="1" result="shadowInnerInner1"/><feColorMatrix values="0 0 0 0 0 0 0 0 0 0 0 0 0 0 0 0 0 0 0.4 0" in="shadowInnerInner1"/></filter><path d="M268.052 11.406c.519.301-.551.582-2.389.627-1.837.045-3.747-.162-4.266-.463-.518-.301.552-.582 2.39-.627 1.837-.045 3.747.162 4.265.463z" id="Y"/><filter x="-4.5%" width="109.1%" height="140%" filterUnits="objectBoundingBox" id="X"><feOffset dy="1" in="SourceAlpha" result="shadowOffsetOuter1"/><feColorMatrix values="0 0 0 0 1 0 0 0 0 1 0 0 0 0 1 0 0 0 0.1 0" in="shadowOffsetOuter1"/></filter><filter x="-9.1%" y="-20%" width="118.2%" height="160%" filterUnits="objectBoundingBox" id="Z"><feGaussianBlur stdDeviation=".5" in="SourceAlpha" result="shadowBlurInner1"/><feOffset dy="1" in="shadowBlurInner1" result="shadowOffsetInner1"/><feComposite in="shadowOffsetInner1" in2="SourceAlpha" operator="arithmetic" k2="-1" k3="1" result="shadowInnerInner1"/><feColorMatrix values="0 0 0 0 0 0 0 0 0 0 0 0 0 0 0 0 0 0 0.4 0" in="shadowInnerInner1"/></filter><path d="M72.917 11.042c.41.301-.436.582-1.886.627-1.451.045-2.96-.162-3.369-.464-.408-.3.436-.58 1.887-.626 1.45-.045 2.959.162 3.368.463z" id="ab"/><filter x="-5.6%" y="-12.5%" width="111.1%" height="150%" filterUnits="objectBoundingBox" id="aa"><feOffset dy="1" in="SourceAlpha" result="shadowOffsetOuter1"/><feColorMatrix values="0 0 0 0 1 0 0 0 0 1 0 0 0 0 1 0 0 0 0.1 0" in="shadowOffsetOuter1"/></filter><filter x="-11.1%" y="-25%" width="122.2%" height="175%" filterUnits="objectBoundingBox" id="ac"><feGaussianBlur stdDeviation=".5" in="SourceAlpha" result="shadowBlurInner1"/><feOffset dy="1" in="shadowBlurInner1" result="shadowOffsetInner1"/><feComposite in="shadowOffsetInner1" in2="SourceAlpha" operator="arithmetic" k2="-1" k3="1" result="shadowInnerInner1"/><feColorMatrix values="0 0 0 0 0 0 0 0 0 0 0 0 0 0 0 0 0 0 0.4 0" in="shadowInnerInner1"/></filter><path id="ad" d="M1 388h699v16H1z"/></defs><g fill="none" fill-rule="evenodd"><g transform="translate(63 -1)"><use fill="#868587" xlink:href="#b"/><use fill="#000" filter="url(#c)" xlink:href="#b"/></g><g fill="#000" transform="translate(63 -1)"><use filter="url(#d)" xlink:href="#e"/><use xlink:href="#e"/><use filter="url(#f)" xlink:href="#e"/></g><g transform="translate(63 -1)"><use fill="#434141" xlink:href="#g"/><use fill="url(#h)" style="mix-blend-mode:multiply" xlink:href="#g"/><use fill="#000" filter="url(#i)" xlink:href="#g"/></g><g fill="#000" transform="translate(63 -1)"><use filter="url(#j)" xlink:href="#k"/><use xlink:href="#k"/></g><g transform="translate(63 -1)"><use fill="#191B1E" xlink:href="#l"/><use fill="url(#m)" xlink:href="#l"/><use fill="#000" filter="url(#n)" xlink:href="#l"/></g><path d="M338.154 383.99l-.174-2.99c-.05-.95-.112-2.09-.102-2.94h-.03a40.317 40.317 0 0 1-.87 2.587l-1.215 3.303h-.675l-1.113-3.243c-.327-.96-.603-1.838-.797-2.646h-.02c-.021.848-.072 1.99-.134 3.01l-.184 2.92h-.848l.48-6.809h1.135l1.175 3.293c.286.838.521 1.586.695 2.293h.03c.174-.687.42-1.435.726-2.293l1.226-3.293h1.134l.43 6.808h-.87zm5.11 0h-.818l-.072-.616h-.03c-.276.384-.808.727-1.513.727-1.001 0-1.512-.696-1.512-1.404 0-1.182 1.062-1.828 2.973-1.818v-.1c0-.405-.112-1.132-1.124-1.132-.46 0-.94.141-1.287.363l-.205-.585c.41-.263 1.002-.435 1.625-.435 1.512 0 1.88 1.02 1.88 2v1.828c0 .425.02.839.082 1.172zm-.951-1.646v-.849c-.981-.02-2.095.152-2.095 1.101 0 .576.388.849.848.849.644 0 1.053-.404 1.196-.819a.914.914 0 0 0 .05-.282zm4.976.798l.153.666c-.235.122-.756.283-1.42.283-1.492 0-2.463-1-2.463-2.495 0-1.505 1.043-2.596 2.657-2.596.532 0 1.002.132 1.247.253l-.204.687c-.215-.122-.552-.233-1.043-.233-1.134 0-1.747.829-1.747 1.849 0 1.131.736 1.828 1.717 1.828.51 0 .848-.131 1.103-.242zm.521.828v-6.697a8.71 8.71 0 0 1 1.625-.142c.89 0 1.461.152 1.89.496.358.262.573.666.573 1.202 0 .656-.44 1.232-1.165 1.494v.02c.654.162 1.42.698 1.42 1.708 0 .586-.235 1.03-.582 1.363-.48.435-1.257.637-2.381.637-.613 0-1.083-.04-1.38-.081zm.89-6.101v2.192h.807c.94 0 1.492-.485 1.492-1.142 0-.798-.614-1.11-1.513-1.11-.408 0-.644.03-.787.06zm0 2.858v2.596c.173.03.429.04.745.04.92 0 1.768-.333 1.768-1.322 0-.93-.807-1.314-1.778-1.314h-.736zm6.038-1.737c1.42 0 2.381 1.02 2.381 2.515 0 1.808-1.267 2.596-2.462 2.596-1.339 0-2.371-.97-2.371-2.515 0-1.636 1.083-2.596 2.452-2.596zm-.02.667c-1.063 0-1.522.97-1.522 1.899 0 1.07.623 1.879 1.502 1.879.858 0 1.502-.798 1.502-1.9 0-.828-.42-1.878-1.482-1.878zm4.915-.667c1.42 0 2.381 1.02 2.381 2.515 0 1.808-1.267 2.596-2.463 2.596-1.338 0-2.37-.97-2.37-2.515 0-1.636 1.083-2.596 2.452-2.596zm-.02.667c-1.063 0-1.523.97-1.523 1.899 0 1.07.623 1.879 1.502 1.879.859 0 1.502-.798 1.502-1.9 0-.828-.419-1.878-1.481-1.878zm3.709-2.839v4.526h.02c.123-.172.297-.384.44-.556l1.45-1.687h1.084l-1.91 2.01 2.176 2.88h-1.094l-1.706-2.344-.46.505v1.838h-.889v-7.172h.889z" fill="#ABACAF"/><path d="M611.633 29.428c.402 0 .728.326.728.728v327.73a.728.728 0 0 1-.728.728H87.313a.728.728 0 0 1-.728-.728V30.156c0-.402.326-.728.728-.728h524.32zm0 .728H87.313v327.73h524.32V30.156z" fill="#0B0C0C"/><g transform="translate(346 13)"><use fill="#000" filter="url(#o)" xlink:href="#p"/><use fill="#585552" xlink:href="#p"/></g><g transform="translate(346 13)"><use fill="#454748" xlink:href="#q"/><use fill="#000" filter="url(#r)" xlink:href="#q"/></g><g transform="translate(346 13)"><use fill="#010000" xlink:href="#s"/><use fill="url(#t)" xlink:href="#s"/><use fill="#000" filter="url(#u)" xlink:href="#s"/><path stroke="#070406" d="M3.473 3.39a.336.336 0 0 0-.337.335c0 .185.15.335.337.335.186 0 .336-.15.336-.335a.336.336 0 0 0-.336-.335z"/></g><g transform="translate(347 14)"><mask id="x" fill="#fff"><use xlink:href="#v"/></mask><use fill="url(#w)" xlink:href="#v"/><g mask="url(#x)"><use fill="#0D0B13" xlink:href="#y"/></g></g><use fill-opacity="0" fill="#000" xlink:href="#z" transform="translate(346 13)"/><g><g transform="translate(-1 387)"><use fill="#FFF" xlink:href="#A"/><use fill="url(#B)" style="mix-blend-mode:multiply" xlink:href="#A"/><use fill="#000" filter="url(#C)" xlink:href="#A"/></g><g transform="translate(-1 387)"><use fill-opacity="0" fill="#FFF" xlink:href="#D"/><use fill="url(#E)" xlink:href="#D"/></g><g transform="translate(-1 387)"><use fill="#3A3737" xlink:href="#F"/><use fill="url(#G)" xlink:href="#F"/><use fill="#000" filter="url(#H)" xlink:href="#F"/></g><g transform="translate(-1 387)"><use fill="#3A3737" xlink:href="#I"/><use fill="url(#G)" xlink:href="#I"/><use fill="#000" filter="url(#J)" xlink:href="#I"/></g><g transform="translate(-1 387)"><use fill="#000" filter="url(#K)" xlink:href="#L"/><use fill="#C3C2C8" xlink:href="#L"/><use fill="url(#M)" xlink:href="#L"/><use fill="#000" filter="url(#N)" xlink:href="#L"/></g><g transform="translate(-1 387)"><use fill="#000" filter="url(#O)" xlink:href="#P"/><use fill-opacity=".08" fill="#FFF" xlink:href="#P"/></g><g transform="translate(-1 387)"><use fill="#000" filter="url(#Q)" xlink:href="#R"/><use fill="#434447" xlink:href="#R"/><use fill="url(#S)" xlink:href="#R"/><use fill="#000" filter="url(#T)" xlink:href="#R"/></g><g transform="translate(-1 387)"><use fill="#000" filter="url(#U)" xlink:href="#V"/><use fill="#434447" xlink:href="#V"/><use fill="url(#S)" xlink:href="#V"/><use fill="#000" filter="url(#W)" xlink:href="#V"/></g><g transform="translate(-1 387)"><use fill="#000" filter="url(#X)" xlink:href="#Y"/><use fill="#434447" xlink:href="#Y"/><use fill="url(#S)" xlink:href="#Y"/><use fill="#000" filter="url(#Z)" xlink:href="#Y"/></g><g transform="translate(-1 387)"><use fill="#000" filter="url(#aa)" xlink:href="#ab"/><use fill="#434447" xlink:href="#ab"/><use fill="url(#S)" xlink:href="#ab"/><use fill="#000" filter="url(#ac)" xlink:href="#ab"/></g></g><g opacity=".45" transform="translate(-1 -1)"><use fill-opacity="0" fill="#000" xlink:href="#ad"/></g></g></svg>
