<svg viewBox="0 0 481 323" xmlns="http://www.w3.org/2000/svg" xmlns:xlink="http://www.w3.org/1999/xlink"><defs><path id="a" d="M0 322.244h480.02V0H0z"/></defs><g transform="matrix(1 0 0 -1 0 322.244)" fill="none" fill-rule="evenodd"><mask id="b" fill="#fff"><use xlink:href="#a"/></mask><g mask="url(#b)"><path d="M480.02 298.39v19.463a4.389 4.389 0 0 1-4.39 4.39H4.39a4.39 4.39 0 0 1-4.39-4.39V298.39h480.02z" fill="#C6C6C6" fill-rule="nonzero"/><path fill="#FFF" fill-rule="nonzero" d="M.255.252L.253 269.506h479.516V.252z"/><path d="M480.02 269.757H0V0h480.02v269.757zm-.502-.503V.504H.503v268.75h479.014z" fill="#D1D1D1" fill-rule="nonzero"/><path d="M66.775 298.21c6.468-.002 6.2 16.637 11.592 16.637l61.666-.005c6.469.003 6.2-16.636 11.591-16.636" stroke="#D1D1D1" stroke-width=".504" fill="#FFF" fill-rule="nonzero"/><path d="M139.802 304.738l-1.02 1.167 1.02 1.165a.444.444 0 0 1-.628.629l-.981-1.122-.981 1.122a.444.444 0 1 1-.628-.63l1.02-1.164-1.02-1.166a.443.443 0 1 1 .628-.628l.98 1.121.982-1.121a.443.443 0 1 1 .627.627" fill="#475568" fill-rule="nonzero"/><path d="M18.567 310.478a4.927 4.927 0 1 0-9.855 0 4.927 4.927 0 0 0 9.855 0" fill="#70B34A" fill-rule="nonzero"/><path d="M35.248 310.478a4.927 4.927 0 1 0-9.855 0 4.927 4.927 0 0 0 9.855 0" fill="#DDAA54" fill-rule="nonzero"/><path d="M52.008 310.478a4.928 4.928 0 1 0-9.855 0 4.928 4.928 0 0 0 9.855 0" fill="#D5655D" fill-rule="nonzero"/><path fill="#FFF" fill-rule="nonzero" d="M.255 263.153l-.002 34.984h479.516v-34.984z"/><path d="M480.02 298.39H0V262.9h480.02v35.49zm-.502-.504v-34.48H.503v34.48h479.014z" fill="#D1D1D1" fill-rule="nonzero"/><path d="M29.136 276.225c.356.348 3.837 4.004 3.837 4.004a.934.934 0 0 1 0 1.343s-3.481 3.655-3.837 4.002c-.355.347-.997.371-1.378 0-.379-.37-.41-.888.001-1.343l3.194-3.33-3.194-3.332c-.41-.456-.38-.973 0-1.344.38-.37 1.022-.347 1.377 0M12.854 285.45c-.356-.348-3.836-4.003-3.836-4.003a.934.934 0 0 1 0-1.344s3.48-3.655 3.836-4.002c.356-.348.997-.371 1.377 0 .38.37.41.887 0 1.342l-3.193 3.331 3.193 3.332c.41.455.38.972 0 1.344-.38.37-1.02.347-1.377 0M50.951 286.005a4.667 4.667 0 0 0 4.66-4.56h1.4l-2.097-2.339-2.098 2.339h1.63a3.501 3.501 0 0 1-3.495 3.39 3.5 3.5 0 0 1-3.496-3.508 3.501 3.501 0 0 1 3.496-3.507c.774 0 1.49.254 2.07.681l.8-.857a4.622 4.622 0 0 0-2.87-.993 4.668 4.668 0 0 0-4.66 4.676c0 2.583 2.085 4.678 4.66 4.678M460.79 276.492h-10.289c-.472 0-.857-.454-.857-1.015 0-.561.385-1.016.858-1.016h10.288c.473 0 .858.455.858 1.016 0 .561-.385 1.015-.858 1.015m-10.289 6.092h10.29c.472 0 .857.454.857 1.015 0 .562-.385 1.015-.858 1.015h-10.289c-.472 0-.857-.453-.857-1.015 0-.56.385-1.015.858-1.015m10.288-2.03h-10.289c-.472 0-.857-.454-.857-1.016 0-.561.385-1.015.858-1.015h10.288c.473 0 .858.454.858 1.015 0 .561-.385 1.015-.858 1.015" fill="#D1D1D1" fill-rule="nonzero"/><path d="M433.322 272.353a2.595 2.595 0 0 0-2.595-2.595l-361.356.878a2.595 2.595 0 0 0-2.595 2.595v14.416a2.595 2.595 0 0 0 2.595 2.596l361.356-.879a2.594 2.594 0 0 0 2.595-2.595v-14.416z" fill="#FFF" fill-rule="nonzero"/><path d="M433.322 272.353a2.595 2.595 0 0 0-2.595-2.595l-361.356.878a2.595 2.595 0 0 0-2.595 2.595v14.416a2.595 2.595 0 0 0 2.595 2.596l361.356-.879a2.594 2.594 0 0 0 2.595-2.595v-14.416z" stroke="#D1D1D1" stroke-width=".504"/><path d="M78.542 286.066h-5.227c-.073 0-.131-.064-.131-.144v-10.554c0-.078.058-.143.13-.143h7.966c.072 0 .131.065.131.143v7.714l-2.869 2.984z" fill="#DBDBDA" fill-rule="nonzero"/><path d="M78.542 286.048v.018l2.87-2.984-2.677.026s-.191.029-.189.253c.003.222-.004 2.705-.004 2.705" fill="#B9B9BA" fill-rule="nonzero"/><path fill="#DCDDDE" fill-rule="nonzero" d="M158.234 101.834H53.786V236.5h104.448zM426.234 101.834H270.939V236.5h155.295zM267.512 171.463H163.065V236.5h104.447zM267.512 101.834H163.065v65.037h104.447v-65.037z"/><path fill="#C6C6C6" fill-rule="nonzero" d="M288.902 72.039h-97.786v6.74h97.786z"/><path fill="#DCDDDE" fill-rule="nonzero" d="M396.343 55.98H83.678v6.739h312.665v-5.86zM396.343 43.556H83.678v6.74h312.665v-5.86zM396.343 31.134H83.678v6.739h312.665v-5.86z"/></g></g></svg>